# xmcd CD database file
#
# Track frame offsets:
#	150
#	14604
#	29432
#	48047
#	65608
#	80736
#	95541
#	109096
#	123284
#	139634
#	151444
#	161483
#	173879
#	188223
#	204373
#
# Disc length: 2875 seconds
#
# Revision: 0
# Processed by: cddbd v1.5.2PL0 Copyright (c) Steve Scherf et al.
# Submitted via: ACXtractor (MTCDDB.DLL V2003.07.15)
#
DISCID=c60b390f
DTITLE=Kieth Jamison and Alisha Smith - Our Bush Ballad Family
DYEAR=2007
DGENRE=Country
TTITLE0=Our Bush Ballad Family
TTITLE1=Days of Old Keeroongooloo
TTITLE2=Barnhill Station
TTITLE3=Freedom Road
TTITLE4=Augathella Fella
TTITLE5=Going Back to Blackall
TTITLE6=True Blue Australian Christmas
TTITLE7=Old Pete's Yellowbelly
TTITLE8=Caitlyn Jane
TTITLE9=Lorna's Waltz
TTITLE10=My Grandfather's Clock
TTITLE11=Music Box  Dancer
TTITLE12=Namatjira
TTITLE13=Sunnyside Sunset
TTITLE14=Tanami Track
EXTD=ID3G:   2 YEAR: 2007
EXTT0=
EXTT1=
EXTT2=
EXTT3=
EXTT4=
EXTT5=
EXTT6=
EXTT7=
EXTT8=
EXTT9=
EXTT10=
EXTT11=
EXTT12=
EXTT13=
EXTT14=
PLAYORDER=
